<?xml version="1.0" encoding="UTF-8"?>
<svg width="500px" height="500px" version="1.1" viewBox="0 0 752 752" xmlns="http://www.w3.org/2000/svg">
 <g fill="#ffd65b">
  <path d="m211.69 363.59-11.285-22.793-11.285 22.793-25.016 3.8359 18.148 17.953-4.6328 25.82 22.785-12.105 22.785 12.105-4.6367-25.82 18.152-17.953z"/>
  <path d="m298.3 363.59-11.285-22.793-11.281 22.793-25.016 3.8359 18.148 17.953-4.6328 25.82 22.781-12.105 22.785 12.105-4.6328-25.82 18.148-17.953z"/>
  <path d="m384.77 363.46-11.562-22.652-11.008 22.93-24.961 4.1406 18.371 17.73-4.3203 25.875 22.633-12.383 22.934 11.82-4.9531-25.762 17.926-18.176z"/>
  <path d="m471.54 363.59-11.285-22.793-11.285 22.793-25.012 3.8359 18.152 17.953-4.6367 25.82 22.781-12.105 22.785 12.105-4.6328-25.82 18.148-17.953z"/>
  <path d="m587.67 365.96c-0.55469-1.6992-2.0156-2.9453-3.7891-3.2148l-22.582-3.457-10.188-20.59c-0.80078-1.6094-2.4492-2.6328-4.2422-2.6328-1.793 0-3.4492 1.0195-4.2422 2.6328l-10.191 20.59-22.582 3.457c-1.7695 0.26953-3.2344 1.5156-3.7891 3.2148-0.55078 1.6992-0.097656 3.5703 1.1758 4.832l16.375 16.203-4.1953 23.371c-0.31641 1.7852 0.40625 3.5938 1.875 4.6641 1.4531 1.0625 3.4141 1.2031 5.0117 0.35547l20.566-10.926 20.562 10.926c0.69141 0.37109 1.457 0.55469 2.2227 0.55469 0.98438 0 1.9648-0.30859 2.7891-0.91016 1.4688-1.0703 2.1914-2.8789 1.875-4.6641l-4.1953-23.371 16.375-16.203c1.2656-1.2617 1.7188-3.125 1.168-4.832zm-25.984 16.055c-1.1094 1.0938-1.6055 2.668-1.332 4.207l2.9141 16.23-14.18-7.5352c-1.3867-0.73438-3.0547-0.73438-4.4414 0l-14.184 7.5352 2.9141-16.23c0.27344-1.5352-0.22266-3.1055-1.332-4.207l-11.457-11.332 15.703-2.4062c1.5234-0.23047 2.8477-1.1953 3.5273-2.5781l7.043-14.223 7.0391 14.223c0.6875 1.3828 2.0039 2.3438 3.5273 2.5781l15.703 2.4062z"/>
 </g>
</svg>
